<svg xmlns="http://www.w3.org/2000/svg" width="71.712" height="23.394" viewBox="0 0 71.712 23.394">
  <path id="xcc_logo_white" d="M11.616-16.224l-1.28-2.944L8.256-22.4H-.992v.64l6.624,10.4L-1.088-.448V0H8.288l1.728-2.912,1.6-3.584,1.568,3.584L14.944,0h9.344V-.448L17.568-11.36l6.656-10.4v-.64H14.976l-2.112,3.232Zm10.848,5.056C22.528,4,44.832,4.288,46.144-9.888h-8.32c-1.024,3.84-6.656,3.456-6.688-1.28,0-4.7,5.536-5.152,6.656-1.408h8.352C44.7-26.784,22.528-26.368,22.464-11.168Zm24.48,0C47.008,4,69.312,4.288,70.624-9.888H62.3c-1.024,3.84-6.656,3.456-6.688-1.28,0-4.7,5.536-5.152,6.656-1.408h8.352C69.184-26.784,47.008-26.368,46.944-11.168Z" transform="translate(1.088 22.911)" fill="#fff"/>
</svg>
